<?xml version="1.0" encoding="UTF-8"?>
<svg id="Layer_1" xmlns="http://www.w3.org/2000/svg" version="1.1" viewBox="0 0 109.7 226.4">
  <!-- Generator: Adobe Illustrator 29.7.1, SVG Export Plug-In . SVG Version: 2.1.1 Build 8)  -->
  <defs>
    <style>
      .st0 {
        fill: #1a2735;
      }

      .st1 {
        fill: #fff;
      }
    </style>
  </defs>
  <rect class="st0" x="-2.8" y="-3.4" width="115.5" height="231.5"/>
  <path class="st1" d="M80.4,137.2h-.3c-1.5,7.8-7.3,11.6-12.1,13.4l5.4-13.5c3.4-8.5,6.2-15.8,7.3-18.2.7-1.3,2.7-3.9,6.5-3.8v-2.5c-3.2.1-6.4.2-9.6.2s-7.2,0-10.8-.2v2.5c5.8,0,7.3,1.3,7.3,4.4s-1.6,6.5-3,11c-1.1,3.2-2.2,6.2-8,21.3,0,0,0,0,0,.1-1.7,4.4-3.7,9.7-6.3,16.4l-12.8-33c-2.1-5.5-6.2-14.7-6.2-17.7s.3-1.9,2.4-2.3c1-.2,2.4-.2,4.3-.3v-2.5c-4.3,0-8.7.2-13.1.2s-8.5,0-12.7-.2v2.5c2.7,0,4.8.4,6.3,1.4,1.3,1,2.7,3,3.9,6.3.4,1.1.9,2.5,2.7,6.9-10.6-4.2-20.8-15.1-12.5-31.7l.3-.3c8.7,4.2,17.1,7.4,31.8,7.9l.4,34.2,4,12c.2.5,1.2.5,1.4,0l3.7-12-.4-34.2c14.1-.8,28.8-5.5,29.1-14.7,0-1.9-.8-3.6-2.1-4.8-1.4,6.1-7.5,10.7-13.9,10.5,0,0,0,0-.1,0,0,0-.1,0-.2,0,0,0-.2,0-.2,0s0,0,0,0c-9.8.6-27.4-4.3-34.6-12.2h-.3c-13.2,5.5-31.1,18.1-31.1,37.7s4.3,19.8,16.6,26.9h.3c1.3-6.9,5.6-11.7,9.7-14.5.8,2,1.8,4.3,2.9,7.1,3.4,8.4,8.4,21,16,40h3.6l11.4-28.6c12.1,4.1,27.8,21.1,18.4,39.9l-.3.3c-9.6-4.6-18.4-7.7-35.8-7.7s-35.6,6.8-35.8,17.2c0,3.3,2.5,6.2,5.8,6.4,0,0,0,0,0,0-.8-4,.8-8.6,4.8-10.4,9.1-5.5,38.3,1.6,47.9,10.4h.3c17.8-12.3,26.5-28,26.5-42.9s-6.4-21.7-18.7-28.8Z"/>
  <g>
    <line class="st1" x1="55.7" y1="86.8" x2="55.7" y2="11.1"/>
    <polygon class="st1" points="52.7 86.8 55.7 11.1 58.7 86.8 52.7 86.8 52.7 86.8"/>
  </g>
  <g>
    <line class="st1" x1="68.9" y1="81.1" x2="85.4" y2="57.7"/>
    <polygon class="st1" points="66.4 79.4 85.4 57.7 71.4 82.8 66.4 79.4 66.4 79.4"/>
  </g>
  <g>
    <line class="st1" x1="63.4" y1="62.7" x2="75.6" y2="35"/>
    <polygon class="st1" points="60.7 61.5 75.6 35 66.2 63.9 60.7 61.5 60.7 61.5"/>
  </g>
  <g>
    <line class="st1" x1="45.3" y1="61.4" x2="33.1" y2="33.7"/>
    <polygon class="st1" points="42.5 62.6 33.1 33.7 48 60.2 42.5 62.6 42.5 62.6"/>
  </g>
  <g>
    <line class="st1" x1="42.4" y1="79.3" x2="26" y2="55.9"/>
    <polygon class="st1" points="40 81 26 55.9 44.9 77.6 40 81 40 81"/>
  </g>
</svg>