<?xml version="1.0" encoding="UTF-8"?>
<svg id="Layer_1" xmlns="http://www.w3.org/2000/svg" version="1.1" viewBox="0 0 305.3 169.2">
  <!-- Generator: Adobe Illustrator 29.7.1, SVG Export Plug-In . SVG Version: 2.1.1 Build 8)  -->
  <defs>
    <style>
      .st0 {
        fill: #231f20;
      }
    </style>
  </defs>
  <g>
    <polygon class="st0" points="49.9 73.1 52.8 4.6 55.9 73.1 49.9 73.1 49.9 73.1"/>
    <polygon class="st0" points="65.1 61.6 81.1 42.8 70.1 64.9 65.1 61.6 65.1 61.6"/>
    <polygon class="st0" points="56.5 52 69.2 29 62 54.3 56.5 52 56.5 52"/>
    <polygon class="st0" points="41.6 53.3 34.4 28.2 47.1 51 41.6 53.3 41.6 53.3"/>
    <polygon class="st0" points="36.7 65.2 25.6 43.3 41.7 61.8 36.7 65.2 36.7 65.2"/>
    <path class="st0" d="M74.5,68.4c-1.2,3.8-3.7,7.2-7.2,8.5-5.2,3.7-27.2-.9-35-9.5h-.3c-11.5,4.8-27.1,15.8-27.1,32.8s3.8,17.3,14.5,23.5h.2c1.8-9.5,10.2-14.5,13.9-15.1-10.5-.6-27.1-11-17.9-29.3l.2-.3c7.8,3.8,15.3,6.6,28.8,6.9l-13.9,35-.9,12.6c0,.6.9.9,1.3.5l8-9.7,15.4-38.7c11.3-1.2,22.1-5.2,22.3-12.5,0-1.9-.9-3.7-2.4-4.7Z"/>
    <path class="st0" d="M63.7,95.9h-.3c-1.9,9.9-12,12.5-15.3,12.7,0,0,0,0,0,0,10.5.4,29.3,17,20,35.6l-.3.3c-8.3-4-16-6.7-31.2-6.7s-31,6-31.2,15c0,2.9,2.2,5.4,5,5.6.5,0,1,0,1.4,0-.8-2.5-.2-5.2,1.4-7.5.2-.2.4-.4.6-.6.1-.1.2-.3.4-.4,0,0,0,0,0,0,7.3-5.4,33.7.9,42.3,8.7h.3c15.5-10.7,23.1-24.4,23.1-37.4s-5.6-18.9-16.3-25.1Z"/>
  </g>
  <path class="st0" d="M130.4,131.9c-.7.3-1.4.4-2.2.4-3.6,0-4.6-4.8-4.6-9.2v-17.3c0-5,1-6.9,2.4-6.9v-.4l-20-7.3h-.3l-21.8,7.3v.3c2.9,5.9,5.9,9.7,9.9,12,0-.3,0-.5,0-.8,0-1,.5-2.1,1.2-2.8,1.6-1.8,1.8-2.2,2.4-2.4-.8-2.2-1.9-3.5-1.7-7.2h.1c0,0,16.3,5.9,16.3,5.9v9.8c-1.6,0-3.1,0-4.4-.2-1.6.3-3.3.5-5,.6.2,0,.3,0,.5,0-15.5,1.4-20.2,6.6-20.2,14.1s7.6,11.3,15.3,12.6h.3l13.4-13.8v1.1c0,7.4,4.4,10.2,9.4,12.7h.3l8.9-8.3-.2-.3ZM112,125.1c-3.4,3.6-5.6,6-10.3,6s-10.1-1.8-10.1-7.4,6.3-9.4,20.4-9.5v10.9Z"/>
  <path class="st0" d="M134.6,149.9v-.2l10.3-6.4h.2c2.8,4,9.3,12,15,12s9.3-2.2,9.3-7.8-4.8-10.7-7-17.6l-18.3,11.2h-.3c-7.3-4.3-13-11.4-13-18.7,0-13.3,11.6-23.7,22.6-30.5h.7l19.9,5.7v.4c-2.8,2.8-4.9,6.3-4.9,10.4,0,7.9,8.2,14.9,8.2,25.2,0,18-11,24-23.9,24s-15.4-3.8-18.6-7.7ZM154.7,132.9h.2l7-4.2c-.4-1.7-.8-3.6-.8-5.6,0-7,3.2-12.6,6.4-17.2v-.2c-.1,0-22.1-6.3-22.1-6.3h-.3c-4,3.7-6.5,6.9-6.5,14.6s7.4,17.2,16.1,18.9Z"/>
  <path class="st0" d="M217.4,71.3c5.2.1,10.5.2,15.7.2s10.8-.2,16.2-.2v3.1c-2.3.1-4,.1-5.2.4-2.6.5-3,1.8-3,2.9,0,3.7,5,15,7.6,21.7l15.8,40.6c14.3-37,16-41.5,17.7-46.6,1.8-5.6,3.7-9.6,3.7-13.5s-1.9-5.5-9-5.5v-3.1c4.4.1,8.9.2,13.3.2s7.8-.1,11.8-.2v3.1c-4.6-.1-7.1,3-8,4.6-1.4,3-4.9,12-9,22.5l-21.7,54.5h-4.4c-9.4-23.3-15.6-38.9-19.7-49.2-7.2-17.8-8.3-20.8-9.2-23.1-1.4-4-3.1-6.5-4.8-7.7-1.8-1.2-4.4-1.7-7.7-1.7v-3.1Z"/>
  <path class="st0" d="M227.5,131.3c-.7.3-1.4.4-2.2.4-3.6,0-4.6-4.8-4.6-9.2v-17.3c0-5,1-6.9,2.4-6.9v-.4l-20-7.3h-.3l-21.8,7.3v.3c2.9,5.9,5.9,9.7,9.9,12,0-.3,0-.5,0-.8,0-1,.5-2.1,1.2-2.8,1.6-1.8,1.8-2.2,2.4-2.4-.8-2.2-1.9-3.5-1.7-7.2h.1c0,0,16.3,5.9,16.3,5.9v9.8c-1.6,0-3.1,0-4.4-.2-1.6.3-3.3.5-5,.6.2,0,.3,0,.5,0-15.5,1.4-20.2,6.6-20.2,14.1s7.6,11.3,15.3,12.6h.3l13.4-13.8v1.1c0,7.4,4.4,10.2,9.4,12.7h.3l8.9-8.3-.2-.3ZM209.1,124.5c-3.4,3.6-5.6,6-10.3,6s-10.1-1.8-10.1-7.4,6.3-9.4,20.4-9.5v10.9Z"/>
  <polygon class="st0" points="264.9 112.7 263.3 108.2 259.7 111.2 261.7 106.9 257 106.4 261.4 104.8 258.4 101.1 262.7 103.2 263.1 98.4 264.7 102.9 268.3 99.9 266.3 104.2 271 104.7 266.6 106.3 269.6 110 265.3 108 264.9 112.7"/>
</svg>