<?xml version="1.0" encoding="UTF-8"?>
<svg id="Layer_1" xmlns="http://www.w3.org/2000/svg" version="1.1" viewBox="0 0 305.3 169.2">
  <!-- Generator: Adobe Illustrator 29.7.1, SVG Export Plug-In . SVG Version: 2.1.1 Build 8)  -->
  <defs>
    <style>
      .st0 {
        fill: #1a2735;
      }

      .st1 {
        fill: #fff;
      }
    </style>
  </defs>
  <rect class="st0" x="-14.3" y="-15" width="335.5" height="193"/>
  <g>
    <g>
      <polygon class="st1" points="51.4 67.2 54.4 -1.3 57.4 67.2 51.4 67.2 51.4 67.2"/>
      <polygon class="st1" points="66.6 55.7 82.7 36.9 71.7 59 66.6 55.7 66.6 55.7"/>
      <polygon class="st1" points="58 46.1 70.7 23.1 63.5 48.4 58 46.1 58 46.1"/>
      <polygon class="st1" points="43.1 47.4 35.9 22.3 48.7 45.1 43.1 47.4 43.1 47.4"/>
      <polygon class="st1" points="38.2 59.2 27.2 37.4 43.2 55.9 38.2 59.2 38.2 59.2"/>
      <path class="st1" d="M76.1,62.5c-1.2,3.8-3.7,7.2-7.2,8.5-5.2,3.7-27.2-.9-35-9.5h-.3c-11.5,4.8-27.1,15.8-27.1,32.8s3.8,17.3,14.5,23.5h.2c1.8-9.5,10.2-14.5,13.9-15.1-10.5-.6-27.1-11-17.9-29.3l.2-.3c7.8,3.8,15.3,6.6,28.8,6.9l-13.9,35-.9,12.6c0,.6.9.9,1.3.5l8-9.7,15.4-38.7c11.3-1.2,22.1-5.2,22.3-12.5,0-1.9-.9-3.7-2.4-4.7Z"/>
      <path class="st1" d="M65.3,89.9h-.3c-1.9,9.9-12,12.5-15.3,12.7,0,0,0,0,0,0,10.5.4,29.3,17,20,35.6l-.3.3c-8.3-4-16-6.7-31.2-6.7s-31,6-31.2,15c0,2.9,2.2,5.4,5,5.6.5,0,1,0,1.4,0-.8-2.5-.2-5.2,1.4-7.5.2-.2.4-.4.6-.6.1-.1.2-.3.4-.4,0,0,0,0,0,0,7.3-5.4,33.7.9,42.3,8.7h.3c15.5-10.7,23.1-24.4,23.1-37.4s-5.6-18.9-16.3-25.1Z"/>
    </g>
    <path class="st1" d="M132,125.9c-.7.3-1.4.4-2.2.4-3.6,0-4.6-4.8-4.6-9.2v-17.3c0-5,1-6.9,2.4-6.9v-.4l-20-7.3h-.3l-21.8,7.3v.3c2.9,5.9,5.9,9.7,9.9,12,0-.3,0-.5,0-.8,0-1,.5-2.1,1.2-2.8,1.6-1.8,1.8-2.2,2.4-2.4-.8-2.2-1.9-3.5-1.7-7.2h.1c0,0,16.3,5.9,16.3,5.9v9.8c-1.6,0-3.1,0-4.4-.2-1.6.3-3.3.5-5,.6.2,0,.3,0,.5,0-15.5,1.4-20.2,6.6-20.2,14.1s7.6,11.3,15.3,12.6h.3l13.4-13.8v1.1c0,7.4,4.4,10.2,9.4,12.7h.3l8.9-8.3-.2-.3ZM113.6,119.2c-3.4,3.6-5.6,6-10.3,6s-10.1-1.8-10.1-7.4,6.3-9.4,20.4-9.5v10.9Z"/>
    <path class="st1" d="M136.1,144v-.2l10.3-6.4h.2c2.8,4,9.3,12,15,12s9.3-2.2,9.3-7.8-4.8-10.7-7-17.6l-18.3,11.2h-.3c-7.3-4.3-13-11.4-13-18.7,0-13.3,11.6-23.7,22.6-30.5h.7l19.9,5.7v.4c-2.8,2.8-4.9,6.3-4.9,10.4,0,7.9,8.2,14.9,8.2,25.2,0,18-11,24-23.9,24s-15.4-3.8-18.6-7.7ZM156.2,126.9h.2l7-4.2c-.4-1.7-.8-3.6-.8-5.6,0-7,3.2-12.6,6.4-17.2v-.2c-.1,0-22.1-6.3-22.1-6.3h-.3c-4,3.7-6.5,6.9-6.5,14.6s7.4,17.2,16.1,18.9Z"/>
    <path class="st1" d="M218.9,65.3c5.2.1,10.5.2,15.7.2s10.8-.2,16.2-.2v3.1c-2.3.1-4,.1-5.2.4-2.6.5-3,1.8-3,2.9,0,3.7,5,15,7.6,21.7l15.8,40.6c14.3-37,16-41.5,17.7-46.6,1.8-5.6,3.7-9.6,3.7-13.5s-1.9-5.5-9-5.5v-3.1c4.4.1,8.9.2,13.3.2s7.8-.1,11.8-.2v3.1c-4.6-.1-7.1,3-8,4.6-1.4,3-4.9,12-9,22.5l-21.7,54.5h-4.4c-9.4-23.3-15.6-38.9-19.7-49.2-7.2-17.8-8.3-20.8-9.2-23.1-1.4-4-3.1-6.5-4.8-7.7-1.8-1.2-4.4-1.7-7.7-1.7v-3.1Z"/>
    <path class="st1" d="M229,125.3c-.7.3-1.4.4-2.2.4-3.6,0-4.6-4.8-4.6-9.2v-17.3c0-5,1-6.9,2.4-6.9v-.4l-20-7.3h-.3l-21.8,7.3v.3c2.9,5.9,5.9,9.7,9.9,12,0-.3,0-.5,0-.8,0-1,.5-2.1,1.2-2.8,1.6-1.8,1.8-2.2,2.4-2.4-.8-2.2-1.9-3.5-1.7-7.2h.1c0,0,16.3,5.9,16.3,5.9v9.8c-1.6,0-3.1,0-4.4-.2-1.6.3-3.3.5-5,.6.2,0,.3,0,.5,0-15.5,1.4-20.2,6.6-20.2,14.1s7.6,11.3,15.3,12.6h.3l13.4-13.8v1.1c0,7.4,4.4,10.2,9.4,12.7h.3l8.9-8.3-.2-.3ZM210.6,118.6c-3.4,3.6-5.6,6-10.3,6s-10.1-1.8-10.1-7.4,6.3-9.4,20.4-9.5v10.9Z"/>
    <polygon class="st1" points="266.4 106.8 264.8 102.3 261.2 105.3 263.2 101 258.6 100.5 263 98.9 260 95.2 264.2 97.3 264.7 92.5 266.2 97 269.8 94 267.9 98.3 272.5 98.8 268.1 100.4 271.1 104.1 266.9 102 266.4 106.8"/>
  </g>
</svg>